<?xml version="1.0" encoding="utf-8"?>
<!-- Generator: Adobe Illustrator 24.0.1, SVG Export Plug-In . SVG Version: 6.00 Build 0)  -->
<svg version="1.1" id="Layer_1" xmlns="http://www.w3.org/2000/svg" xmlns:xlink="http://www.w3.org/1999/xlink" x="0px" y="0px"
	 viewBox="0 0 48 48" style="enable-background:new 0 0 48 48;" xml:space="preserve">
<style type="text/css">
	.st0{fill:none;stroke:#FFFFFF;stroke-width:0.8;stroke-linecap:round;stroke-linejoin:round;stroke-miterlimit:10;}
</style>
<polyline class="st0" points="32.7,35.3 36.6,35.3 36.6,5.3 12.1,5.3 12.1,35.3 27,43.9 27,13.9 14.2,6.2 32.6,10.4 32.6,40.4 
	27.1,38.5 "/>
<path class="st0" d="M32.4,35.3"/>
<line class="st0" x1="15.6" y1="31.4" x2="24.1" y2="36.3"/>
<polyline class="st0" points="19.8,17.1 19.8,30 22.5,27.3 "/>
<line class="st0" x1="17.1" y1="27" x2="19.8" y2="30"/>
<polyline class="st0" points="32.5,35.4 36.3,35.4 36.3,5.3 11.9,5.3 11.9,35.4 26.8,44 26.8,13.9 14,6.2 32.4,10.4 32.4,40.5 
	26.9,38.6 "/>
<path class="st0" d="M32.1,35.4"/>
<line class="st0" x1="15.4" y1="31.4" x2="23.9" y2="36.3"/>
<polyline class="st0" points="19.5,17.2 19.5,30 23,28.1 "/>
<line class="st0" x1="16" y1="25.7" x2="19.5" y2="30"/>
</svg>
