<?xml version="1.0" encoding="utf-8"?>
<!-- Generator: Adobe Illustrator 24.0.1, SVG Export Plug-In . SVG Version: 6.00 Build 0)  -->
<svg version="1.1" id="Layer_1" xmlns="http://www.w3.org/2000/svg" xmlns:xlink="http://www.w3.org/1999/xlink" x="0px" y="0px"
	 viewBox="0 0 43 18" style="enable-background:new 0 0 43 18;" xml:space="preserve">
<style type="text/css">
	.st0{fill:#FFFFFF;}
</style>
<g>
	<path class="st0" d="M14.8,1.1c-1.1,0.1-1.5,0.2-1.5,1.5v7.4c0,1.3,0.4,1.4,1.5,1.5v0.3h-4.7v-0.3c1.3-0.1,1.5-0.3,1.5-1.7V2.4h0
		l-4.2,9.5H7.2L3,2.8h0v6.7c0,1.7,0.4,2.1,1.6,2.1v0.3H0.6v-0.3c1.3-0.1,1.6-0.3,1.6-2.1V2.6c0-1.3-0.4-1.4-1.6-1.5V0.8H4l3.9,8.4
		l3.7-8.4h3.3V1.1z"/>
	<path class="st0" d="M27.3,1.1c-0.9,0.1-1.3,0.1-2.5,1.6l-2.4,3l3.2,4.6c0.7,0.9,1,1.2,1.9,1.2v0.3h-5v-0.3
		c0.8-0.1,1.3-0.1,1.3-0.6c0-0.3-0.6-1.2-0.9-1.6l-1.6-2.3l-2,2.5C19,10,18.5,10.6,18.5,11c0,0.5,0.6,0.6,1.3,0.6v0.3h-3.9v-0.3
		c0.9-0.1,1.1-0.3,2.4-1.9l2.6-3.2l-1.8-2.7c-1.7-2.5-2.1-2.5-3-2.6V0.8h5.1v0.3c-0.9,0-1.3,0-1.3,0.5c0,0.3,0.3,0.9,1.4,2.5l0.7,1
		l1.9-2.3c0.4-0.5,0.7-0.8,0.7-1.1c0-0.5-0.6-0.5-1.2-0.6V0.8h4V1.1z"/>
	<path class="st0" d="M42.3,1.1c-1.1,0.1-1.5,0.2-1.5,1.5v7.4c0,1.3,0.4,1.4,1.5,1.5v0.3h-4.7v-0.3c1.3-0.1,1.5-0.3,1.5-1.7V2.4h0
		l-4.2,9.5h-0.2l-4.2-9.1h0v6.7c0,1.7,0.4,2.1,1.6,2.1v0.3h-3.9v-0.3c1.3-0.1,1.6-0.3,1.6-2.1V2.6c0-1.3-0.4-1.4-1.6-1.5V0.8h3.3
		l3.9,8.4L39,0.8h3.3V1.1z"/>
</g>
<g>
	<path class="st0" d="M7.5,15c-0.1-0.4-0.3-0.6-0.7-0.6c-0.2,0-0.4,0.1-0.5,0.2c-0.1,0.1-0.3,0.3-0.3,0.8c0,0.7,0.4,1,0.8,1
		c0.4,0,0.7-0.2,0.8-0.3l0.1,0.1c0,0-0.3,0.4-0.9,0.4c-0.5,0-1.1-0.3-1.1-1.2c0-0.7,0.6-1.2,1.1-1.2c0.3,0,0.5,0.1,0.6,0.1
		c0,0,0.1,0,0.2-0.1h0.1L7.5,15L7.5,15z"/>
	<path class="st0" d="M9.1,15.4c0-0.8,0.5-1.2,1.1-1.2c0.5,0,1.1,0.4,1.1,1.2c0,0.7-0.5,1.1-1.1,1.1C9.6,16.6,9.1,16.1,9.1,15.4z
		 M10.9,15.4c0-0.8-0.4-1-0.7-1s-0.7,0.3-0.7,1c0,0.7,0.3,1,0.7,1C10.5,16.5,10.9,16.2,10.9,15.4z"/>
	<path class="st0" d="M13.6,14.4c-0.2,0-0.3,0-0.3,0.3v1.6c0,0.1,0.1,0.1,0.3,0.1c0.5,0,0.7,0,0.9-0.5h0.1l-0.2,0.6h-1.8v-0.1
		c0.2,0,0.3,0,0.3-0.3v-1.5c0-0.3-0.1-0.3-0.3-0.3v-0.1L13.6,14.4L13.6,14.4z"/>
	<path class="st0" d="M16.9,14.4c-0.2,0-0.3,0-0.3,0.3v1.6c0,0.1,0.1,0.1,0.3,0.1c0.5,0,0.7,0,0.9-0.5H18l-0.2,0.6H16v-0.1
		c0.2,0,0.3,0,0.3-0.3v-1.5c0-0.3-0.1-0.3-0.3-0.3v-0.1L16.9,14.4L16.9,14.4z"/>
	<path class="st0" d="M21.1,16.5h-1.8v-0.1c0.2,0,0.3,0,0.3-0.3v-1.5c0-0.3-0.1-0.3-0.3-0.3v-0.1h1.8l0,0.5H21
		c-0.1-0.3-0.1-0.4-0.5-0.4h-0.5c-0.1,0-0.1,0-0.1,0.1v0.7h0.5c0.3,0,0.3-0.1,0.4-0.3h0.1v0.8h-0.1c0-0.3-0.1-0.3-0.4-0.3l-0.5,0
		v0.8c0,0.1,0,0.1,0.5,0.1c0.4,0,0.6-0.1,0.7-0.4h0.1L21.1,16.5z"/>
	<path class="st0" d="M24.6,15c-0.1-0.4-0.3-0.6-0.7-0.6c-0.2,0-0.4,0.1-0.5,0.2c-0.1,0.1-0.3,0.3-0.3,0.8c0,0.7,0.4,1,0.8,1
		c0.4,0,0.7-0.2,0.8-0.3l0.1,0.1c0,0-0.3,0.4-0.9,0.4c-0.5,0-1.1-0.3-1.1-1.2c0-0.7,0.6-1.2,1.1-1.2c0.3,0,0.5,0.1,0.6,0.1
		c0,0,0.1,0,0.2-0.1h0.1L24.6,15L24.6,15z"/>
	<path class="st0" d="M27.6,16.5h-1v-0.1c0.3,0,0.3-0.1,0.3-0.3v-1.7h-0.2c-0.4,0-0.5,0.1-0.5,0.4h-0.1l0-0.6h1.9l0,0.6H28
		c-0.1-0.4-0.2-0.4-0.5-0.4h-0.2v1.7C27.3,16.4,27.3,16.5,27.6,16.5L27.6,16.5z"/>
	<path class="st0" d="M29.5,16.5c0.3,0,0.3-0.1,0.3-0.3v-1.5c0-0.2,0-0.3-0.3-0.3v-0.1h1v0.1c-0.2,0-0.3,0-0.3,0.3v1.5
		c0,0.3,0.1,0.3,0.3,0.3v0.1L29.5,16.5L29.5,16.5z"/>
	<path class="st0" d="M31.9,15.4c0-0.8,0.5-1.2,1.1-1.2s1.1,0.4,1.1,1.2c0,0.7-0.5,1.1-1.1,1.1S31.9,16.1,31.9,15.4z M33.7,15.4
		c0-0.8-0.4-1-0.7-1s-0.7,0.3-0.7,1c0,0.7,0.3,1,0.7,1C33.4,16.5,33.7,16.2,33.7,15.4z"/>
	<path class="st0" d="M37.8,14.4c-0.2,0-0.3,0-0.3,0.4v1.8h-0.1L36,14.7h0V16c0,0.3,0.1,0.4,0.3,0.4v0.1h-0.8v-0.1
		c0.3,0,0.3-0.1,0.3-0.4v-1.5c-0.1-0.2-0.2-0.2-0.3-0.2v-0.1h0.6l1.3,1.6h0v-1.1c0-0.4-0.1-0.4-0.3-0.4v-0.1L37.8,14.4L37.8,14.4z"
		/>
</g>
</svg>
