<?xml version="1.0" encoding="utf-8"?>
<!-- Generator: Adobe Illustrator 24.0.1, SVG Export Plug-In . SVG Version: 6.00 Build 0)  -->
<svg version="1.1" id="Layer_1" xmlns="http://www.w3.org/2000/svg" xmlns:xlink="http://www.w3.org/1999/xlink" x="0px" y="0px"
	 viewBox="0 0 60 60" style="enable-background:new 0 0 60 60;" xml:space="preserve">
<style type="text/css">
	.st0{fill:#94C956;}
	.st1{fill:none;stroke:#FFFFFF;stroke-width:1.2;stroke-miterlimit:10;}
</style>
<path class="st0" d="M53.09,59.2H6.92c-3.46,0-6.27-2.81-6.27-6.27V6.75c0-3.46,2.81-6.27,6.27-6.27h46.18
	c3.46,0,6.27,2.81,6.27,6.27v46.18C59.37,56.39,56.56,59.2,53.09,59.2z"/>
<g>
	<path class="st1" d="M29.31,22.28l3.1-7.68c0.64-1.58,2.43-2.34,4-1.7l9.32,3.76c1.58,0.64,2.34,2.43,1.7,4L40.6,37.59
		c-0.64,1.58-2.43,2.34-4,1.7l-9.32-3.76c-1.58-0.64-2.34-2.43-1.7-4l1-2.49"/>
	<path class="st1" d="M31.77,41.04l-3.04,7.54c-0.64,1.58-2.43,2.34-4,1.7l-9.32-3.76c-1.58-0.64-2.34-2.43-1.7-4l6.83-16.93
		c0.64-1.58,2.43-2.34,4-1.7l9.32,3.76c1.58,0.64,2.34,2.43,1.7,4l-1.03,2.56"/>
</g>
</svg>
