<?xml version="1.0" encoding="utf-8"?>
<!-- Generator: Adobe Illustrator 24.0.1, SVG Export Plug-In . SVG Version: 6.00 Build 0)  -->
<svg version="1.1" id="Layer_1" xmlns="http://www.w3.org/2000/svg" xmlns:xlink="http://www.w3.org/1999/xlink" x="0px" y="0px"
	 viewBox="0 0 48 48" style="enable-background:new 0 0 48 48;" xml:space="preserve">
<style type="text/css">
	.st0{fill:#FFFFFF;}
</style>
<g>
	<path class="st0" d="M34.83,9.48L14.7,9.52c-1.93,0.04-3.47,2.05-3.47,3.98v22.4l-3.16,4.07h26.84c1.96,0,3.55-1.59,3.55-3.55
		V13.03C38.46,11.04,36.82,9.43,34.83,9.48z M20.25,13.94c2.2-0.42,3.95,0.81,4.84,1.95c0.27,0.35,0.2,0.32,0.7-0.15
		c1.19-1.13,2.37-2.12,4.35-1.67c2.69,0.66,3.77,2.66,3.37,5.42c-0.92,3.5-3.64,6.35-8.09,8.59l-2.6-1.5l-2.9-2.31
		c-1.54-1.56-2.41-3.06-2.72-5.34C16.95,16.13,17.97,14.56,20.25,13.94z M33.42,36.11H16.63c-0.22,0-0.4-0.18-0.4-0.4
		s0.18-0.4,0.4-0.4h16.79c0.22,0,0.4,0.18,0.4,0.4S33.64,36.11,33.42,36.11z M33.42,32.48H16.63c-0.22,0-0.4-0.18-0.4-0.4
		c0-0.22,0.18-0.4,0.4-0.4h16.79c0.22,0,0.4,0.18,0.4,0.4C33.82,32.3,33.64,32.48,33.42,32.48z"/>
</g>
</svg>
