<?xml version="1.0" encoding="utf-8"?>
<!-- Generator: Adobe Illustrator 24.0.1, SVG Export Plug-In . SVG Version: 6.00 Build 0)  -->
<svg version="1.1" id="Layer_1" xmlns="http://www.w3.org/2000/svg" xmlns:xlink="http://www.w3.org/1999/xlink" x="0px" y="0px"
	 viewBox="0 0 60 60" style="enable-background:new 0 0 60 60;" xml:space="preserve">
<style type="text/css">
	.st0{fill:#94C956;}
	.st1{fill:none;stroke:#FFFFFF;stroke-linecap:round;stroke-linejoin:round;stroke-miterlimit:10;}
</style>
<path class="st0" d="M53.09,59.28H6.92c-3.46,0-6.27-2.81-6.27-6.27V6.84c0-3.46,2.81-6.27,6.27-6.27h46.18
	c3.46,0,6.27,2.81,6.27,6.27v46.18C59.37,56.48,56.56,59.28,53.09,59.28z"/>
<g>
	<g>
		<circle class="st1" cx="29.93" cy="25.24" r="4.31"/>
		<path class="st1" d="M22.02,40.51v-2.92c0-3.85,3.12-6.96,6.96-6.96h1.7c3.85,0,6.96,3.12,6.96,6.96v3.1"/>
		<line class="st1" x1="25.8" y1="36.38" x2="25.8" y2="40.51"/>
		<line class="st1" x1="33.88" y1="36.38" x2="33.88" y2="40.51"/>
	</g>
	<circle class="st1" cx="30.19" cy="30.8" r="12.67"/>
	<g>
		<circle class="st1" cx="29.92" cy="10.17" r="3.67"/>
		<line class="st1" x1="29.92" y1="18.13" x2="29.92" y2="14.09"/>
		<circle class="st1" cx="29.92" cy="51.89" r="3.67"/>
		<line class="st1" x1="29.92" y1="43.77" x2="29.92" y2="47.81"/>
	</g>
	<g>
		<circle class="st1" cx="11.85" cy="20.6" r="3.67"/>
		<line class="st1" x1="18.75" y1="24.58" x2="15.25" y2="22.56"/>
		<circle class="st1" cx="47.98" cy="41.46" r="3.67"/>
		<line class="st1" x1="40.95" y1="37.4" x2="44.45" y2="39.42"/>
	</g>
	<g>
		<circle class="st1" cx="11.85" cy="41.46" r="3.67"/>
		<line class="st1" x1="18.75" y1="37.48" x2="15.25" y2="39.5"/>
		<circle class="st1" cx="47.98" cy="20.6" r="3.67"/>
		<line class="st1" x1="40.95" y1="24.66" x2="44.45" y2="22.64"/>
	</g>
</g>
</svg>
