<?xml version="1.0" encoding="utf-8"?>
<!-- Generator: Adobe Illustrator 24.0.1, SVG Export Plug-In . SVG Version: 6.00 Build 0)  -->
<svg version="1.1" id="Layer_1" xmlns="http://www.w3.org/2000/svg" xmlns:xlink="http://www.w3.org/1999/xlink" x="0px" y="0px"
	 viewBox="0 0 60 60" style="enable-background:new 0 0 60 60;" xml:space="preserve">
<style type="text/css">
	.st0{fill:#94C956;}
	.st1{fill-rule:evenodd;clip-rule:evenodd;fill:none;stroke:#FFFFFF;stroke-miterlimit:10;}
	.st2{fill:none;stroke:#FFFFFF;stroke-miterlimit:10;}
</style>
<path class="st0" d="M53.16,59.33H6.99c-3.46,0-6.27-2.81-6.27-6.27V6.88c0-3.46,2.81-6.27,6.27-6.27h46.18
	c3.46,0,6.27,2.81,6.27,6.27v46.18C59.43,56.52,56.63,59.33,53.16,59.33z"/>
<g>
	<g>
		<g>
			<path class="st1" d="M28.46,24.57h3.94c0.33,0,0.59,0.27,0.59,0.59v6.21c0,0.33-0.27,0.59-0.59,0.59h-3.94
				c-0.33,0-0.59-0.27-0.59-0.59v-6.21C27.87,24.83,28.14,24.57,28.46,24.57z"/>
		</g>
		<rect x="16.14" y="16.01" class="st1" width="6.57" height="6.57"/>
		<rect x="38.21" y="16.01" class="st1" width="6.57" height="6.57"/>
		<rect x="16.14" y="37.5" class="st1" width="6.57" height="6.57"/>
		<polyline class="st1" points="38.21,40.69 38.21,44.08 44.79,44.08 44.79,40.57 		"/>
		<polyline class="st1" points="41.5,37.21 44.79,37.21 44.79,27.59 		"/>
		<line class="st1" x1="38.39" y1="28.58" x2="38.39" y2="26.28"/>
		<line class="st1" x1="38.39" y1="37.03" x2="38.39" y2="30.42"/>
		<line class="st1" x1="21.68" y1="33.55" x2="21.68" y2="31.25"/>
		<polyline class="st1" points="25.09,36.9 32.55,36.9 32.55,43.8 27.58,43.8 		"/>
		<polyline class="st1" points="23.54,27.52 15.9,27.52 15.9,32.18 		"/>
		<polyline class="st1" points="27.39,15.84 32.05,15.84 32.05,20.38 		"/>
		<polyline class="st1" points="42.3,9.45 50.38,9.45 50.38,17.52 		"/>
		<polyline class="st1" points="18.11,9.45 10.03,9.45 10.03,17.52 		"/>
		<polyline class="st1" points="42.3,50.21 50.38,50.21 50.38,42.14 		"/>
		<polyline class="st1" points="18.11,50.21 10.03,50.21 10.03,42.14 		"/>
	</g>
	<path class="st2" d="M25.75,35.25V24.36c0-1.39,1.12-2.51,2.51-2.51h4.21"/>
	<path class="st2" d="M35.12,21.56v10.86c0,1.39-1.12,2.51-2.51,2.51H28.4"/>
</g>
</svg>
