<?xml version="1.0" encoding="utf-8"?>
<!-- Generator: Adobe Illustrator 24.0.1, SVG Export Plug-In . SVG Version: 6.00 Build 0)  -->
<svg version="1.1" id="Layer_1" xmlns="http://www.w3.org/2000/svg" xmlns:xlink="http://www.w3.org/1999/xlink" x="0px" y="0px"
	 viewBox="0 0 48 48" style="enable-background:new 0 0 48 48;" xml:space="preserve">
<style type="text/css">
	.st0{fill-rule:evenodd;clip-rule:evenodd;fill:#FFFFFF;}
</style>
<g>
	<path class="st0" d="M32.76,14.64c-2.26-2.33-5.27-3.62-8.48-3.62c-6.61,0-11.98,5.54-11.99,12.35c0,2.18,0.55,4.3,1.6,6.17
		l-1.7,6.4l6.35-1.72c1.75,0.98,3.72,1.5,5.73,1.5h0.01c6.61,0,11.98-5.54,11.99-12.35C36.27,20.08,35.03,16.98,32.76,14.64
		 M24.29,34.47L24.29,34.47c-1.94,0-3.83-0.54-5.49-1.55l-0.39-0.24l-4.5,1.59l1.51-4.58l-0.26-0.42c-1.08-1.77-1.65-3.81-1.65-5.91
		c0-6.12,4.83-11.09,10.77-11.09c2.88,0,5.58,1.16,7.61,3.25c2.03,2.1,3.15,4.88,3.15,7.85C35.06,29.49,30.22,34.47,24.29,34.47"/>
	<path class="st0" d="M30.2,26.16c-0.32-0.17-1.92-0.97-2.21-1.09c-0.3-0.11-0.51-0.17-0.73,0.17c-0.22,0.33-0.84,1.08-1.03,1.31
		c-0.19,0.22-0.38,0.25-0.7,0.08s-1.37-0.52-2.6-1.65c-0.96-0.88-1.61-1.98-1.8-2.31s-0.02-0.51,0.14-0.68
		c0.15-0.15,0.32-0.39,0.49-0.58c0.16-0.19,0.22-0.33,0.32-0.56c0.11-0.22,0.05-0.42-0.03-0.58c-0.08-0.17-0.73-1.81-1-2.48
		c-0.26-0.65-0.53-0.56-0.73-0.57c-0.19-0.01-0.4-0.01-0.62-0.01s-0.57,0.08-0.86,0.42c-0.3,0.33-1.13,1.14-1.13,2.78
		c0,1.64,1.16,3.23,1.32,3.45c0.16,0.22,2.28,3.59,5.53,5.04c0.77,0.34,1.38,0.55,1.85,0.7c0.78,0.25,1.48,0.22,2.04,0.13
		c0.62-0.1,1.92-0.81,2.19-1.59s0.27-1.45,0.19-1.59C30.74,26.41,30.52,26.33,30.2,26.16"/>
</g>
</svg>
