<?xml version="1.0" encoding="utf-8"?>
<!-- Generator: Adobe Illustrator 24.0.1, SVG Export Plug-In . SVG Version: 6.00 Build 0)  -->
<svg version="1.1" id="Layer_1" xmlns="http://www.w3.org/2000/svg" xmlns:xlink="http://www.w3.org/1999/xlink" x="0px" y="0px"
	 viewBox="0 0 48 48" style="enable-background:new 0 0 48 48;" xml:space="preserve">
<style type="text/css">
	.st0{fill:none;stroke:#FFFFFF;stroke-width:0.8;stroke-linecap:round;stroke-linejoin:round;stroke-miterlimit:10;}
	.st1{fill:#FFFFFF;}
	.st2{fill:#4E86A0;}
</style>
<g>
	<circle class="st0" cx="12.61" cy="12.87" r="3.81"/>
	<path class="st0" d="M5.62,26.35v-2.58c0-3.4,2.75-6.15,6.15-6.15h1.5c1.7,0,3.24,0.69,4.35,1.8"/>
	<line class="st0" x1="8.96" y1="22.7" x2="8.96" y2="26.35"/>
	<line class="st0" x1="16.1" y1="22.7" x2="16.1" y2="26.35"/>
</g>
<path class="st0" d="M15.11,30.01H6.54c0,0-4.42,0-4.42,4.16s3.12,4.42,4.16,4.42s11.69,0,11.69,0"/>
<circle class="st1" cx="7.32" cy="34.42" r="1.17"/>
<circle class="st1" cx="11.68" cy="34.42" r="1.17"/>
<circle class="st1" cx="16.05" cy="34.42" r="1.17"/>
<g>
	<path class="st1" d="M32.78,10.08c-7.62,0-13.79,6.17-13.79,13.79s6.17,13.79,13.79,13.79c7.62,0,13.79-6.17,13.79-13.79
		S40.39,10.08,32.78,10.08z M28.49,22.77c0.17-0.14,0.42-0.12,0.56,0.04l2.99,3.49V13.84c0-0.22,0.18-0.4,0.4-0.4s0.4,0.18,0.4,0.4
		v12.49l3.15-3.53c0.15-0.16,0.4-0.18,0.56-0.03c0.17,0.15,0.18,0.4,0.03,0.56l-3.85,4.31c-0.04,0.05-0.1,0.08-0.15,0.1
		c0,0,0,0-0.01,0.01c-0.04,0.02-0.09,0.02-0.14,0.02c-0.09,0-0.17-0.04-0.24-0.09c-0.01-0.01-0.02,0-0.03-0.01
		c-0.01-0.01-0.01-0.02-0.02-0.02c-0.01-0.01-0.01-0.01-0.02-0.01l-3.69-4.31C28.3,23.16,28.32,22.91,28.49,22.77z M40.57,29.93
		c0,0.22-0.18,0.4-0.4,0.4H24.59c-0.22,0-0.4-0.18-0.4-0.4v-3.12c0-0.22,0.18-0.4,0.4-0.4s0.4,0.18,0.4,0.4v2.72h14.78v-2.37
		c0-0.22,0.18-0.4,0.4-0.4s0.4,0.18,0.4,0.4V29.93z"/>
	<path class="st2" d="M32.44,27.78c-0.08,0-0.17-0.04-0.24-0.09C32.27,27.74,32.35,27.78,32.44,27.78z"/>
	<path class="st2" d="M32.58,27.76C32.58,27.75,32.58,27.75,32.58,27.76c-0.04,0.01-0.09,0.02-0.14,0.02
		C32.49,27.78,32.54,27.77,32.58,27.76z"/>
	<path class="st2" d="M32.17,27.68c0.01,0.01,0.02,0,0.03,0.01c-0.01-0.01-0.03-0.02-0.04-0.03C32.16,27.66,32.17,27.67,32.17,27.68
		z"/>
</g>
</svg>
