<?xml version="1.0" encoding="utf-8"?>
<!-- Generator: Adobe Illustrator 24.0.1, SVG Export Plug-In . SVG Version: 6.00 Build 0)  -->
<svg version="1.1" id="Layer_1" xmlns="http://www.w3.org/2000/svg" xmlns:xlink="http://www.w3.org/1999/xlink" x="0px" y="0px"
	 viewBox="0 0 60 60" style="enable-background:new 0 0 60 60;" xml:space="preserve">
<style type="text/css">
	.st0{fill:#94C956;}
	.st1{fill:none;stroke:#FFFFFF;stroke-width:1.2;stroke-linecap:round;stroke-linejoin:round;stroke-miterlimit:10;}
	.st2{fill:none;stroke:#FFFFFF;stroke-width:1.2;stroke-miterlimit:10;}
</style>
<path class="st0" d="M53.03,59.26H6.85c-3.46,0-6.27-2.81-6.27-6.27V6.82c0-3.46,2.81-6.27,6.27-6.27h46.18
	c3.46,0,6.27,2.81,6.27,6.27v46.18C59.3,56.46,56.49,59.26,53.03,59.26z"/>
<g>
	<g>
		<polyline class="st1" points="46.13,12.75 53.31,20.69 46.22,28.85 		"/>
		<polyline class="st1" points="37.06,12.75 44.24,20.69 37.15,28.85 		"/>
		<path class="st1" d="M43.81,20.31c-15.34,0-27.78,12.44-27.78,27.78"/>
	</g>
	<path class="st2" d="M32.33,29.9v12.98c0,2.97-2.43,5.38-5.43,5.38h-12.9c-3,0-5.43-2.41-5.43-5.38v-25.1
		c0-2.97,2.43-5.38,5.43-5.38h12.9c3,0,5.43,2.41,5.43,5.38"/>
	<path class="st2" d="M29.79,29.9"/>
</g>
</svg>
