<?xml version="1.0" encoding="utf-8"?>
<!-- Generator: Adobe Illustrator 24.0.1, SVG Export Plug-In . SVG Version: 6.00 Build 0)  -->
<svg version="1.1" id="Layer_1" xmlns="http://www.w3.org/2000/svg" xmlns:xlink="http://www.w3.org/1999/xlink" x="0px" y="0px"
	 viewBox="0 0 48 48" style="enable-background:new 0 0 48 48;" xml:space="preserve">
<style type="text/css">
	.st0{fill:#FFFFFF;}
	.st1{fill:none;stroke:#FFFFFF;stroke-miterlimit:10;}
</style>
<g>
	<g>
		<path class="st0" d="M23.95,7.62c-5.5,0-9.95,4.46-9.95,9.95c0,5.61,4.46,8.69,7.23,13.36c2.11,3.56,2.72,6.81,2.72,6.81
			s0.6-3.31,2.72-6.89c2.77-4.67,7.23-7.07,7.23-13.28C33.9,12.07,29.44,7.62,23.95,7.62z M23.95,21.21c-1.92,0-3.47-1.55-3.47-3.47
			s1.55-3.47,3.47-3.47s3.47,1.55,3.47,3.47S25.86,21.21,23.95,21.21z"/>
	</g>
	<path class="st1" d="M27.34,34.9c3.63,0.51,6.22,1.81,6.22,3.35c0,1.97-4.28,3.57-9.57,3.57s-9.57-1.6-9.57-3.57
		c0-1.53,2.58-2.84,6.21-3.35"/>
</g>
</svg>
