<?xml version="1.0" encoding="utf-8"?>
<!-- Generator: Adobe Illustrator 24.0.1, SVG Export Plug-In . SVG Version: 6.00 Build 0)  -->
<svg version="1.1" id="Layer_1" xmlns="http://www.w3.org/2000/svg" xmlns:xlink="http://www.w3.org/1999/xlink" x="0px" y="0px"
	 viewBox="0 0 48 48" style="enable-background:new 0 0 48 48;" xml:space="preserve">
<style type="text/css">
	.st0{fill:#FFFFFF;}
	.st1{fill-rule:evenodd;clip-rule:evenodd;fill:#FFFFFF;}
</style>
<g>
	<path class="st0" d="M18.46,36.27h9.15c1.9,0,2.97-0.29,2.97-2.05L30.55,14.5h2.73v20.15c0,1.88-0.21,2.35-0.87,3.15
		c-0.58,0.7-1.96,0.96-3.53,0.96H18.46L18.46,36.27z"/>
	<path class="st0" d="M28.21,16.97h-9.15c-1.9,0-2.97,0.29-2.97,2.05l0.02,19.73h-2.73V18.6c0-1.88,0.21-2.35,0.87-3.15
		c0.58-0.7,1.96-0.96,3.53-0.96h10.41L28.21,16.97z"/>
	<path class="st1" d="M19.94,19.77h7.15c0.59,0,1.08,0.48,1.08,1.08V32.1c0,0.59-0.48,1.08-1.08,1.08h-7.15
		c-0.59,0-1.08-0.48-1.08-1.08V20.85C18.86,20.26,19.34,19.77,19.94,19.77z"/>
	<ellipse class="st1" cx="31.66" cy="9.73" rx="2.53" ry="2.4"/>
</g>
</svg>
