<?xml version="1.0" encoding="utf-8"?>
<!-- Generator: Adobe Illustrator 24.0.1, SVG Export Plug-In . SVG Version: 6.00 Build 0)  -->
<svg version="1.1" id="Layer_1" xmlns="http://www.w3.org/2000/svg" xmlns:xlink="http://www.w3.org/1999/xlink" x="0px" y="0px"
	 viewBox="0 0 66 66" style="enable-background:new 0 0 66 66;" xml:space="preserve">
<style type="text/css">
	.st0{fill:#E8ECF1;}
	.st1{fill:#FFFFFF;}
	.st2{fill:url(#SVGID_1_);}
</style>
<path class="st0" d="M51.5,0.8H15.5C7.7,0.8,1.3,7.2,1.3,15V51c0,7.9,6.4,14.2,14.2,14.2h35.9c7.9,0,14.2-6.4,14.2-14.2V15
	C65.7,7.2,59.3,0.8,51.5,0.8z"/>
<g>
	<g id="XMLID_1_">
		<path class="st1" d="M34,14.5c9.5,0,17.2,7.7,17.2,17.2S43.5,49,34,49c-4.8,0-8.3-2.1-8.3-2.1l-9.3,2.7l2.8-8.9
			c0,0-2.5-4.2-2.5-8.9C16.7,22.2,24.5,14.5,34,14.5z M48.5,31.8c0-8-6.5-14.5-14.5-14.5c-8,0-14.5,6.5-14.5,14.5
			c0,4.7,2.8,8.6,2.8,8.6l-1.8,5.1l5.5-1.7c0,0,3.5,2.4,8,2.4C42,46.2,48.5,39.8,48.5,31.8z"/>
		<linearGradient id="SVGID_1_" gradientUnits="userSpaceOnUse" x1="33.9771" y1="46.2368" x2="33.9771" y2="17.2721">
			<stop  offset="0" style="stop-color:#7DBA46"/>
			<stop  offset="0.1002" style="stop-color:#70B744"/>
			<stop  offset="0.2843" style="stop-color:#4FB03F"/>
			<stop  offset="0.5" style="stop-color:#20A537"/>
			<stop  offset="0.5671" style="stop-color:#30A93A"/>
			<stop  offset="0.7588" style="stop-color:#5AB240"/>
			<stop  offset="0.9096" style="stop-color:#73B844"/>
			<stop  offset="1" style="stop-color:#7DBA46"/>
		</linearGradient>
		<path class="st2" d="M34,17.3c8,0,14.5,6.5,14.5,14.5c0,8-6.5,14.5-14.5,14.5c-4.4,0-8-2.4-8-2.4l-5.5,1.7l1.8-5.1
			c0,0-2.8-3.9-2.8-8.6C19.5,23.8,26,17.3,34,17.3z"/>
	</g>
	<path class="st1" d="M27.5,24.5c0,0,0.5-0.3,0.7-0.3c0.2,0,1.4,0,1.4,0s0.4,0.1,0.5,0.4c0.2,0.4,1.3,3.1,1.4,3.3
		c0.1,0.2,0.3,0.7,0,1.2c-0.4,0.5-1.1,1.3-1.1,1.3s-0.3,0.3,0,0.7c0.3,0.4,1.2,1.8,2.3,2.9c1.2,1.1,2.6,1.8,3.3,2.1
		c0.7,0.2,0.9-0.1,1.2-0.4c0.3-0.4,1.1-1.4,1.1-1.4s0.3-0.4,0.9-0.2c0.6,0.3,3.4,1.6,3.4,1.6s0.3,0.1,0.4,0.4c0,0.4,0.3,1.5-0.8,2.6
		c-1,1.1-3.2,1.6-4.2,1.3c-1-0.3-4.4-1.2-6.7-3.3c-2.2-2.1-4-4.3-4.8-5.9c-0.7-1.6-0.7-2.6-0.7-3C25.9,27.5,26.1,25.4,27.5,24.5z"/>
</g>
</svg>
