<?xml version="1.0" encoding="utf-8"?>
<!-- Generator: Adobe Illustrator 24.0.1, SVG Export Plug-In . SVG Version: 6.00 Build 0)  -->
<svg version="1.1" id="Layer_1" xmlns="http://www.w3.org/2000/svg" xmlns:xlink="http://www.w3.org/1999/xlink" x="0px" y="0px"
	 viewBox="0 0 66 66" style="enable-background:new 0 0 66 66;" xml:space="preserve">
<style type="text/css">
	.st0{fill:#E8ECF1;}
	.st1{fill:#CFD6D5;}
	.st2{fill-rule:evenodd;clip-rule:evenodd;fill:#CFD6D5;}
</style>
<path class="st0" d="M51.13,0.56H15.19C7.33,0.56,0.95,6.94,0.95,14.8v35.94c0,7.86,6.38,14.24,14.24,14.24h35.94
	c7.86,0,14.24-6.38,14.24-14.24V14.8C65.37,6.94,59,0.56,51.13,0.56z"/>
<g>
	<path class="st1" d="M26.9,45.51h8.89c2.29,0,3.57-0.35,3.57-2.46l-0.03-22.02h5.01v22.02c0,2.26-0.7,4.02-2.07,5.26
		c-1.38,1.24-3.31,1.87-5.8,1.87H26.9L26.9,45.51z"/>
	<path class="st1" d="M37.07,25.79h-8.89c-2.29,0-3.57,0.35-3.57,2.46l0.03,22.02h-5.01V28.25c0-2.26,0.7-4.02,2.07-5.26
		c1.38-1.24,3.31-1.87,5.8-1.87h9.57L37.07,25.79z"/>
	<path class="st2" d="M27.79,27.45h8.59c0.71,0,1.29,0.58,1.29,1.29v13.52c0,0.71-0.58,1.29-1.29,1.29h-8.59
		c-0.71,0-1.29-0.58-1.29-1.29V28.74C26.49,28.03,27.07,27.45,27.79,27.45z"/>
	<ellipse class="st2" cx="41.87" cy="15.38" rx="3.04" ry="2.89"/>
</g>
</svg>
