<?xml version="1.0" encoding="utf-8"?>
<!-- Generator: Adobe Illustrator 24.0.1, SVG Export Plug-In . SVG Version: 6.00 Build 0)  -->
<svg version="1.1" id="Layer_1" xmlns="http://www.w3.org/2000/svg" xmlns:xlink="http://www.w3.org/1999/xlink" x="0px" y="0px"
	 viewBox="0 0 66 66" style="enable-background:new 0 0 66 66;" xml:space="preserve">
<style type="text/css">
	.st0{fill:#E8ECF1;}
	.st1{fill:#007BBD;}
</style>
<path class="st0" d="M51.13,1.35H15.19c-7.86,0-14.24,6.38-14.24,14.24v35.94c0,7.86,6.38,14.24,14.24,14.24h35.94
	c7.86,0,14.24-6.38,14.24-14.24V15.59C65.37,7.72,59,1.35,51.13,1.35z"/>
<g>
	<g>
		<g>
			<g>
				<path class="st1" d="M48.57,38.56v11.07c0,0.27-0.22,0.5-0.5,0.5h-5.72c-0.27,0-0.5-0.22-0.5-0.5v-10.3
					c0-2.71-0.97-4.56-3.4-4.56c-1.85,0-2.95,1.25-3.44,2.45c-0.18,0.43-0.22,1.03-0.22,1.63v10.77c0,0.27-0.22,0.5-0.5,0.5H28.6
					c-0.27,0-0.5-0.22-0.5-0.5c0.01-2.74,0.07-16.05,0.01-19.17c-0.01-0.28,0.22-0.5,0.5-0.5h5.7c0.27,0,0.5,0.22,0.5,0.5v2.36
					c-0.01,0.02-0.03,0.04-0.04,0.07h0.04v-0.07c0.89-1.37,2.48-3.33,6.04-3.33C45.26,29.48,48.57,32.36,48.57,38.56L48.57,38.56z
					 M18.18,50.12h5.71c0.27,0,0.5-0.22,0.5-0.5V30.45c0-0.27-0.22-0.5-0.5-0.5h-5.71c-0.27,0-0.5,0.22-0.5,0.5v19.18
					C17.69,49.9,17.91,50.12,18.18,50.12z"/>
			</g>
		</g>
	</g>
	<g>
		<path class="st1" d="M24.43,23.8c0,1.98-1.61,3.59-3.59,3.59s-3.59-1.61-3.59-3.59s1.61-3.59,3.59-3.59S24.43,21.81,24.43,23.8z"
			/>
	</g>
</g>
</svg>
