<?xml version="1.0" encoding="utf-8"?>
<!-- Generator: Adobe Illustrator 24.0.1, SVG Export Plug-In . SVG Version: 6.00 Build 0)  -->
<svg version="1.1" id="Layer_1" xmlns="http://www.w3.org/2000/svg" xmlns:xlink="http://www.w3.org/1999/xlink" x="0px" y="0px"
	 viewBox="0 0 66 66" style="enable-background:new 0 0 66 66;" xml:space="preserve">
<style type="text/css">
	.st0{fill:#E8ECF1;}
	.st1{fill:#CFD6D5;}
</style>
<path class="st0" d="M51.13,1.17H15.19c-7.86,0-14.24,6.38-14.24,14.24v35.94c0,7.86,6.38,14.24,14.24,14.24h35.94
	c7.86,0,14.24-6.38,14.24-14.24V15.41C65.37,7.55,59,1.17,51.13,1.17z"/>
<path class="st1" d="M52.88,29.13c0-4.78-3.87-8.65-8.65-8.65H22.1c-4.78,0-8.65,3.87-8.65,8.65v10.3c0,4.78,3.87,8.65,8.65,8.65
	h22.12c4.78,0,8.65-3.87,8.65-8.65V29.13z M39.87,35.05l-9.92,4.91c-0.39,0.21-1.71-0.07-1.71-0.51V29.37
	c0-0.45,1.33-0.73,1.72-0.51l9.5,5.17C39.85,34.25,40.27,34.83,39.87,35.05z"/>
</svg>
