<?xml version="1.0" encoding="utf-8"?>
<!-- Generator: Adobe Illustrator 24.0.1, SVG Export Plug-In . SVG Version: 6.00 Build 0)  -->
<svg version="1.1" id="Layer_1" xmlns="http://www.w3.org/2000/svg" xmlns:xlink="http://www.w3.org/1999/xlink" x="0px" y="0px"
	 viewBox="0 0 66 44" style="enable-background:new 0 0 66 44;" xml:space="preserve">
<style type="text/css">
	.st0{fill:none;stroke:#41695B;stroke-width:0.8;stroke-miterlimit:10;}
</style>
<g>
	<path class="st0" d="M0.88,40.08c0,0,10.86-14.77,15.79-17.51s15.34-3.29,18.08-0.55c0,0,8.22,0,10.96,0
		c2.74,0,4.62,0.58,4.62,3.55c0,1.37,0.04,3.02-3.53,3.02c-3.56,0-14.25,0-14.25,0"/>
	<path class="st0" d="M22.42,41.75c0,0,3.56-4.11,7.12-4.11s7.4,0,9.59,0s4.56-0.18,8.49-2.19c6.36-3.25,14.8-9.32,14.8-9.32
		s3.56-1.64,1.37-5.21c-2.19-3.56-7.12,0.27-7.12,0.27l-6.03,3.29"/>
	<path class="st0" d="M37.35,5.86l-2.88,0.41c0,0-1.92,0.69-0.55,2.19s2.19,1.64,2.47,2.33c0.27,0.69,0.27,1.78,0.14,2.74
		C36.39,14.49,36.26,16,36.26,16s0,1.51,1.23,0.82c1.23-0.69,2.74-1.51,2.74-1.51s0.82-0.55,2.06,0s2.6,1.51,2.6,1.51
		s2.19,0.41,1.92-1.64c-0.27-2.06-1.1-3.43,0-4.66s2.06-2.47,2.06-2.47s1.23-1.51-0.55-1.78S45.99,6,45.3,5.86
		c-0.69-0.14-1.14-1.34-2.06-3.01c-0.82-1.51-2.33-1.92-3.15-0.27S38.18,5.58,37.35,5.86z"/>
	<line class="st0" x1="25.43" y1="2.98" x2="29.13" y2="4.35"/>
	<line class="st0" x1="24.48" y1="9.01" x2="28.45" y2="9.15"/>
	<line class="st0" x1="25.71" y1="15.31" x2="29.27" y2="13.94"/>
	<line class="st0" x1="57.87" y1="2.98" x2="54.17" y2="4.35"/>
	<line class="st0" x1="58.83" y1="9.01" x2="54.85" y2="9.15"/>
	<line class="st0" x1="57.59" y1="15.31" x2="54.03" y2="13.94"/>
</g>
</svg>
