<?xml version="1.0" encoding="utf-8"?>
<!-- Generator: Adobe Illustrator 24.0.1, SVG Export Plug-In . SVG Version: 6.00 Build 0)  -->
<svg version="1.1" id="Layer_1" xmlns="http://www.w3.org/2000/svg" xmlns:xlink="http://www.w3.org/1999/xlink" x="0px" y="0px"
	 viewBox="0 0 66 66" style="enable-background:new 0 0 66 66;" xml:space="preserve">
<style type="text/css">
	.st0{fill:#E8ECF1;}
	.st1{opacity:0.8;fill-rule:evenodd;clip-rule:evenodd;fill:#CFD6D5;}
	.st2{fill-rule:evenodd;clip-rule:evenodd;fill:#CFD6D5;}
</style>
<path class="st0" d="M51.31,0.82H15.37C7.5,0.82,1.13,7.2,1.13,15.06V51c0,7.86,6.38,14.24,14.24,14.24h35.94
	c7.86,0,14.24-6.38,14.24-14.24V15.06C65.55,7.2,59.17,0.82,51.31,0.82z"/>
<g>
	<path class="st1" d="M41.15,29.07c2.63,1.88,5.86,2.99,9.35,2.99v-6.71c-0.66,0-1.32-0.07-1.96-0.21v5.28
		c-3.49,0-6.71-1.11-9.35-2.99v13.68c0,6.85-5.55,12.39-12.4,12.39c-2.56,0-4.93-0.77-6.9-2.1c2.25,2.3,5.39,3.73,8.87,3.73
		c6.85,0,12.4-5.55,12.4-12.39L41.15,29.07L41.15,29.07z M43.57,22.3c-1.35-1.47-2.23-3.37-2.42-5.47v-0.86h-1.86
		C39.76,18.64,41.35,20.92,43.57,22.3L43.57,22.3z M24.21,46.17c-0.75-0.99-1.16-2.19-1.16-3.43c0-3.13,2.54-5.67,5.67-5.67
		c0.58,0,1.16,0.09,1.72,0.27v-6.86c-0.65-0.09-1.31-0.13-1.96-0.11v5.34c-0.56-0.18-1.14-0.27-1.72-0.27
		c-3.13,0-5.67,2.54-5.67,5.67C21.09,43.31,22.36,45.23,24.21,46.17z"/>
	<path class="st2" d="M39.18,27.44c2.64,1.88,5.86,2.99,9.35,2.99v-5.28c-1.95-0.41-3.67-1.43-4.96-2.84
		c-2.22-1.38-3.81-3.66-4.28-6.33H34.4v26.78c-0.01,3.12-2.55,5.65-5.67,5.65c-1.84,0-3.48-0.88-4.52-2.24
		c-1.85-0.93-3.12-2.85-3.12-5.06c0-3.13,2.54-5.67,5.67-5.67c0.6,0,1.18,0.09,1.72,0.27v-5.34C21.76,30.5,16.35,36,16.35,42.75
		c0,3.37,1.35,6.43,3.53,8.67c1.97,1.32,4.35,2.1,6.9,2.1c6.85,0,12.4-5.55,12.4-12.39V27.44z"/>
	<path class="st2" d="M48.53,25.15v-1.43c-1.75,0-3.48-0.49-4.96-1.42C44.89,23.75,46.62,24.74,48.53,25.15z M39.29,15.97
		c-0.04-0.25-0.08-0.51-0.1-0.77v-0.86h-6.75v26.78c-0.01,3.12-2.55,5.65-5.67,5.65c-0.92,0-1.78-0.22-2.55-0.6
		c1.04,1.36,2.67,2.24,4.52,2.24c3.13,0,5.66-2.53,5.67-5.65V15.97H39.29z M28.49,30.36v-1.52c-0.56-0.08-1.13-0.12-1.7-0.12
		c-6.85,0-12.4,5.55-12.4,12.39c0,4.29,2.18,8.07,5.5,10.3c-2.19-2.23-3.53-5.29-3.53-8.67C16.35,36,21.76,30.5,28.49,30.36
		L28.49,30.36z"/>
</g>
</svg>
