<?xml version="1.0" encoding="utf-8"?>
<!-- Generator: Adobe Illustrator 24.0.1, SVG Export Plug-In . SVG Version: 6.00 Build 0)  -->
<svg version="1.1" id="Layer_1" xmlns="http://www.w3.org/2000/svg" xmlns:xlink="http://www.w3.org/1999/xlink" x="0px" y="0px"
	 viewBox="0 0 66 66" style="enable-background:new 0 0 66 66;" xml:space="preserve">
<style type="text/css">
	.st0{fill:#E8ECF1;}
	.st1{fill:#CFD6D5;}
</style>
<path class="st0" d="M51.13,1H15.19C7.33,1,0.95,7.37,0.95,15.24v35.94c0,7.86,6.38,14.24,14.24,14.24h35.94
	c7.86,0,14.24-6.38,14.24-14.24V15.24C65.37,7.37,59,1,51.13,1z"/>
<path class="st1" d="M50.61,20.58c-1.12,0.51-2.35,0.81-3.56,1.01c0.57-0.1,1.41-1.13,1.75-1.55c0.51-0.64,0.94-1.37,1.18-2.15
	c0.03-0.06,0.05-0.14-0.01-0.19c-0.08-0.03-0.13-0.01-0.19,0.02c-1.35,0.72-2.74,1.24-4.22,1.61c-0.12,0.03-0.21,0-0.29-0.08
	c-0.12-0.14-0.24-0.27-0.37-0.38c-0.62-0.53-1.29-0.95-2.04-1.25c-0.99-0.4-2.07-0.57-3.13-0.5c-1.04,0.07-2.05,0.36-2.97,0.84
	c-0.92,0.48-1.74,1.15-2.4,1.96c-0.68,0.84-1.18,1.82-1.43,2.87c-0.25,1.01-0.23,2.01-0.08,3.03c0.02,0.17,0.01,0.19-0.15,0.17
	c-5.79-0.86-10.6-2.94-14.49-7.38c-0.17-0.19-0.26-0.19-0.4,0.01c-1.71,2.56-0.88,6.67,1.25,8.68c0.28,0.27,0.58,0.54,0.89,0.78
	c-0.11,0.02-1.53-0.13-2.8-0.78c-0.17-0.11-0.25-0.05-0.27,0.15c-0.02,0.28,0.01,0.53,0.05,0.83c0.33,2.59,2.12,4.99,4.58,5.92
	c0.29,0.12,0.61,0.23,0.93,0.28c-0.56,0.12-1.14,0.21-2.74,0.08c-0.2-0.04-0.28,0.06-0.2,0.25c1.21,3.29,3.81,4.27,5.76,4.83
	c0.26,0.05,0.52,0.05,0.78,0.11c-0.02,0.02-0.03,0.02-0.05,0.05c-0.65,0.99-2.89,1.72-3.94,2.09c-1.9,0.66-3.97,0.96-5.98,0.77
	c-0.32-0.05-0.39-0.04-0.48,0c-0.09,0.05-0.01,0.13,0.09,0.21c0.41,0.27,0.82,0.51,1.25,0.74c1.28,0.68,2.61,1.21,4,1.6
	c7.18,1.98,15.27,0.53,20.66-4.83c4.23-4.21,5.72-10.01,5.72-15.82c0-0.23,0.27-0.35,0.43-0.47c1.1-0.83,1.99-1.82,2.81-2.92
	c0.18-0.25,0.19-0.47,0.19-0.56c0-0.02,0-0.03,0-0.03C50.75,20.48,50.75,20.51,50.61,20.58z"/>
</svg>
