<?xml version="1.0" encoding="utf-8"?>
<!-- Generator: Adobe Illustrator 24.0.1, SVG Export Plug-In . SVG Version: 6.00 Build 0)  -->
<svg version="1.1" id="Layer_1" xmlns="http://www.w3.org/2000/svg" xmlns:xlink="http://www.w3.org/1999/xlink" x="0px" y="0px"
	 viewBox="0 0 66 66" style="enable-background:new 0 0 66 66;" xml:space="preserve">
<style type="text/css">
	.st0{fill:#E8ECF1;}
	.st1{fill:url(#SVGID_1_);}
	.st2{fill:url(#SVGID_2_);}
	.st3{fill:url(#SVGID_3_);}
</style>
<path class="st0" d="M51.22,0.82H15.28C7.42,0.82,1.04,7.2,1.04,15.06V51c0,7.86,6.38,14.24,14.24,14.24h35.94
	c7.86,0,14.24-6.38,14.24-14.24V15.06C65.46,7.2,59.08,0.82,51.22,0.82z"/>
<g>
	<linearGradient id="SVGID_1_" gradientUnits="userSpaceOnUse" x1="24.8278" y1="7.7556" x2="58.3639" y2="41.2917">
		<stop  offset="1.104800e-03" style="stop-color:#FFE184"/>
		<stop  offset="0.2094" style="stop-color:#FBBA3A"/>
		<stop  offset="0.3765" style="stop-color:#EA5277"/>
		<stop  offset="0.5238" style="stop-color:#E93D8E"/>
		<stop  offset="0.7394" style="stop-color:#7B4997"/>
		<stop  offset="1" style="stop-color:#4F539F"/>
	</linearGradient>
	<path class="st1" d="M42.44,23.28c-1.15,0-2.09,0.94-2.09,2.09c0,1.15,0.94,2.09,2.09,2.09c1.15,0,2.09-0.94,2.09-2.09
		C44.53,24.21,43.6,23.28,42.44,23.28z"/>
	<linearGradient id="SVGID_2_" gradientUnits="userSpaceOnUse" x1="15.4926" y1="17.0906" x2="49.0291" y2="50.6271">
		<stop  offset="1.104800e-03" style="stop-color:#FFE184"/>
		<stop  offset="0.2094" style="stop-color:#FBBA3A"/>
		<stop  offset="0.3765" style="stop-color:#EA5277"/>
		<stop  offset="0.5238" style="stop-color:#E93D8E"/>
		<stop  offset="0.7394" style="stop-color:#7B4997"/>
		<stop  offset="1" style="stop-color:#4F539F"/>
	</linearGradient>
	<path class="st2" d="M33.14,25.96c-4.84,0-8.78,3.94-8.78,8.78c0,4.84,3.94,8.78,8.78,8.78s8.78-3.94,8.78-8.78
		C41.93,29.9,37.99,25.96,33.14,25.96z M33.14,40.37c-3.1,0-5.63-2.52-5.63-5.63c0-3.1,2.52-5.63,5.63-5.63s5.63,2.52,5.63,5.63
		C38.77,37.85,36.25,40.37,33.14,40.37z"/>
	<linearGradient id="SVGID_3_" gradientUnits="userSpaceOnUse" x1="15.4193" y1="17.1638" x2="48.9559" y2="50.7004">
		<stop  offset="1.104800e-03" style="stop-color:#FFE184"/>
		<stop  offset="0.2094" style="stop-color:#FBBA3A"/>
		<stop  offset="0.3765" style="stop-color:#EA5277"/>
		<stop  offset="0.5238" style="stop-color:#E93D8E"/>
		<stop  offset="0.7394" style="stop-color:#7B4997"/>
		<stop  offset="1" style="stop-color:#4F539F"/>
	</linearGradient>
	<path class="st3" d="M40.12,52.58H25.88c-5.91,0-10.71-4.81-10.71-10.71V27.62c0-5.91,4.81-10.71,10.71-10.71h14.24
		c5.91,0,10.71,4.81,10.71,10.71v14.24C50.83,47.77,46.03,52.58,40.12,52.58z M25.88,20.27c-4.06,0-7.36,3.3-7.36,7.36v14.24
		c0,4.06,3.3,7.36,7.36,7.36h14.24c4.06,0,7.36-3.3,7.36-7.36V27.62c0-4.06-3.3-7.36-7.36-7.36H25.88z"/>
</g>
</svg>
