<?xml version="1.0" encoding="utf-8"?>
<!-- Generator: Adobe Illustrator 24.0.1, SVG Export Plug-In . SVG Version: 6.00 Build 0)  -->
<svg version="1.1" id="Layer_1" xmlns="http://www.w3.org/2000/svg" xmlns:xlink="http://www.w3.org/1999/xlink" x="0px" y="0px"
	 viewBox="0 0 66 66" style="enable-background:new 0 0 66 66;" xml:space="preserve">
<style type="text/css">
	.st0{fill:#E8ECF1;}
	.st1{fill:#CFD6D5;}
</style>
<path class="st0" d="M51.22,1H15.28C7.42,1,1.04,7.37,1.04,15.24v35.94c0,7.86,6.38,14.24,14.24,14.24h35.94
	c7.86,0,14.24-6.38,14.24-14.24V15.24C65.46,7.37,59.08,1,51.22,1z"/>
<g>
	<path class="st1" d="M42.44,23.45c-1.15,0-2.09,0.94-2.09,2.09c0,1.15,0.94,2.09,2.09,2.09c1.15,0,2.09-0.94,2.09-2.09
		C44.53,24.39,43.6,23.45,42.44,23.45z"/>
	<path class="st1" d="M33.14,26.13c-4.84,0-8.78,3.94-8.78,8.78c0,4.84,3.94,8.78,8.78,8.78s8.78-3.94,8.78-8.78
		C41.93,30.07,37.99,26.13,33.14,26.13z M33.14,40.54c-3.1,0-5.63-2.52-5.63-5.63c0-3.1,2.52-5.63,5.63-5.63s5.63,2.52,5.63,5.63
		C38.77,38.02,36.25,40.54,33.14,40.54z"/>
	<path class="st1" d="M40.12,52.75H25.88c-5.91,0-10.71-4.81-10.71-10.71V27.8c0-5.91,4.81-10.71,10.71-10.71h14.24
		c5.91,0,10.71,4.81,10.71,10.71v14.24C50.83,47.94,46.03,52.75,40.12,52.75z M25.88,20.44c-4.06,0-7.36,3.3-7.36,7.36v14.24
		c0,4.06,3.3,7.36,7.36,7.36h14.24c4.06,0,7.36-3.3,7.36-7.36V27.8c0-4.06-3.3-7.36-7.36-7.36H25.88z"/>
</g>
</svg>
