<?xml version="1.0" encoding="utf-8"?>
<!-- Generator: Adobe Illustrator 24.0.1, SVG Export Plug-In . SVG Version: 6.00 Build 0)  -->
<svg version="1.1" id="Layer_1" xmlns="http://www.w3.org/2000/svg" xmlns:xlink="http://www.w3.org/1999/xlink" x="0px" y="0px"
	 viewBox="0 0 66 66" style="enable-background:new 0 0 66 66;" xml:space="preserve">
<style type="text/css">
	.st0{fill:#E8ECF1;}
	.st1{fill:#CFD6D5;}
</style>
<path class="st0" d="M50.78,0.82H14.84C6.98,0.82,0.6,7.2,0.6,15.06V51c0,7.86,6.38,14.24,14.24,14.24h35.94
	c7.86,0,14.24-6.38,14.24-14.24V15.06C65.02,7.2,58.65,0.82,50.78,0.82z"/>
<path class="st1" d="M14.84,32.56c0,0,17.22-7.07,23.19-9.55c2.29-1,10.05-4.18,10.05-4.18s3.58-1.39,3.28,1.99
	c-0.1,1.39-0.9,6.27-1.69,11.55c-1.19,7.46-2.49,15.63-2.49,15.63s-0.2,2.29-1.89,2.69c-1.69,0.4-4.48-1.39-4.98-1.79
	c-0.4-0.3-7.46-4.78-10.05-6.97c-0.7-0.6-1.49-1.79,0.1-3.18c3.58-3.28,7.86-7.37,10.45-9.95c1.19-1.19,2.39-3.98-2.59-0.6
	c-7.07,4.88-14.03,9.46-14.03,9.46s-1.59,1-4.58,0.1c-2.99-0.9-6.47-2.09-6.47-2.09S10.76,34.16,14.84,32.56L14.84,32.56z"/>
</svg>
