<?xml version="1.0" encoding="utf-8"?>
<!-- Generator: Adobe Illustrator 24.0.1, SVG Export Plug-In . SVG Version: 6.00 Build 0)  -->
<svg version="1.1" id="Layer_1" xmlns="http://www.w3.org/2000/svg" xmlns:xlink="http://www.w3.org/1999/xlink" x="0px" y="0px"
	 viewBox="0 0 66 66" style="enable-background:new 0 0 66 66;" xml:space="preserve">
<style type="text/css">
	.st0{fill:#E8ECF1;}
	.st1{fill:#CFD6D5;}
</style>
<path class="st0" d="M51.22,0.82H15.28C7.42,0.82,1.04,7.2,1.04,15.06V51c0,7.86,6.38,14.24,14.24,14.24h35.94
	c7.86,0,14.24-6.38,14.24-14.24V15.06C65.46,7.2,59.08,0.82,51.22,0.82z"/>
<g>
	<g>
		<g>
			<g>
				<path class="st1" d="M48.66,38.03V49.1c0,0.27-0.22,0.5-0.5,0.5h-5.72c-0.27,0-0.5-0.22-0.5-0.5v-10.3
					c0-2.71-0.97-4.56-3.4-4.56c-1.85,0-2.95,1.25-3.44,2.45c-0.18,0.43-0.22,1.03-0.22,1.63V49.1c0,0.27-0.22,0.5-0.5,0.5h-5.71
					c-0.27,0-0.5-0.22-0.5-0.5c0.01-2.74,0.07-16.05,0.01-19.17c-0.01-0.28,0.22-0.5,0.5-0.5h5.7c0.27,0,0.5,0.22,0.5,0.5v2.36
					c-0.01,0.02-0.03,0.04-0.04,0.07h0.04v-0.07c0.89-1.37,2.48-3.33,6.04-3.33C45.35,28.95,48.66,31.84,48.66,38.03L48.66,38.03z
					 M18.27,49.6h5.71c0.27,0,0.5-0.22,0.5-0.5V29.92c0-0.27-0.22-0.5-0.5-0.5h-5.71c-0.27,0-0.5,0.22-0.5,0.5V49.1
					C17.78,49.38,18,49.6,18.27,49.6z"/>
			</g>
		</g>
	</g>
	<g>
		<path class="st1" d="M24.52,23.27c0,1.98-1.61,3.59-3.59,3.59s-3.59-1.61-3.59-3.59s1.61-3.59,3.59-3.59S24.52,21.29,24.52,23.27z
			"/>
	</g>
</g>
</svg>
