<?xml version="1.0" encoding="utf-8"?>
<!-- Generator: Adobe Illustrator 24.0.1, SVG Export Plug-In . SVG Version: 6.00 Build 0)  -->
<svg version="1.1" id="Layer_1" xmlns="http://www.w3.org/2000/svg" xmlns:xlink="http://www.w3.org/1999/xlink" x="0px" y="0px"
	 viewBox="0 0 66 66" style="enable-background:new 0 0 66 66;" xml:space="preserve">
<style type="text/css">
	.st0{fill:#E8ECF1;}
	.st1{fill:#255A9E;}
</style>
<path class="st0" d="M51.02,0.68H15.08c-7.86,0-14.24,6.38-14.24,14.24v35.94c0,7.86,6.38,14.24,14.24,14.24h35.94
	c7.86,0,14.24-6.38,14.24-14.24V14.92C65.26,7.06,58.89,0.68,51.02,0.68z"/>
<path class="st1" d="M34.42,53.74V36.99h5.58l1.06-6.93h-6.65v-4.5c0-1.9,0.93-3.74,3.91-3.74h3.02v-5.9c0,0-2.74-0.47-5.36-0.47
	c-5.47,0-9.05,3.32-9.05,9.32v5.28h-6.08v6.93h6.08v16.75H34.42z"/>
</svg>
