<?xml version="1.0" encoding="utf-8"?>
<!-- Generator: Adobe Illustrator 24.0.1, SVG Export Plug-In . SVG Version: 6.00 Build 0)  -->
<svg version="1.1" id="Layer_1" xmlns="http://www.w3.org/2000/svg" xmlns:xlink="http://www.w3.org/1999/xlink" x="0px" y="0px"
	 viewBox="0 0 145 58" style="enable-background:new 0 0 145 58;" xml:space="preserve">
<style type="text/css">
	.st0{fill:#706F6F;}
	.st1{fill:#B2B2B2;}
	.st2{fill-rule:evenodd;clip-rule:evenodd;fill:#706F6F;}
</style>
<g>
	<path class="st0" d="M65.87,38.92h10.08c2.6,0,4.05-0.4,4.05-2.79l-0.03-24.97h5.68v24.97c0,2.57-0.79,4.56-2.34,5.96
		c-1.56,1.41-3.75,2.12-6.57,2.12H65.87L65.87,38.92z"/>
	<path class="st0" d="M52.56,44.3l-7.54,0.01v-5.72h-0.14c-2.38,3.78-5.87,5.67-10.47,5.67c-3.39,0-6.04-0.84-7.96-2.52
		c-1.92-1.68-2.87-3.91-2.87-6.69c0-5.95,3.75-9.42,11.24-10.41l10.24-1.32c0-4.5-2.33-6.74-7-6.74c-4.11,0-7.81,1.29-11.11,3.88
		V14.2c3.63-1.98,7.82-2.95,12.58-2.95c8.71,0,13.07,3.92,13.06,11.76L52.56,44.3L52.56,44.3z M45.05,28.03l-7.24,0.93
		c-2.24,0.27-3.93,0.77-5.07,1.49c-1.14,0.74-1.7,2.01-1.7,3.84c0,1.34,0.53,2.43,1.56,3.28c1.05,0.85,2.45,1.28,4.19,1.28
		c2.38,0,4.35-0.77,5.91-2.3c1.56-1.52,2.34-3.45,2.34-5.77V28.03z"/>
	<g>
		<path class="st0" d="M121.56,30.04H97.95c0.09,2.93,1.08,5.19,2.96,6.78c1.88,1.59,4.47,2.38,7.76,2.38
			c3.7,0,7.09-1.01,10.18-3.03v5.79c-3.16,1.82-7.33,2.72-12.51,2.72c-5.1,0-9.09-1.44-11.99-4.32c-2.9-2.88-4.35-6.93-4.35-12.15
			c0-4.93,1.59-8.95,4.79-12.05c3.19-3.1,7.15-4.66,11.89-4.66c4.73,0,8.4,1.39,10.99,4.18c2.59,2.79,3.89,6.65,3.89,11.6V30.04z
			 M113.99,24.96c-0.02-2.58-0.69-4.58-2-6.02c-1.31-1.43-3.11-2.15-5.41-2.15c-2.25,0-4.17,0.75-5.73,2.26
			c-1.57,1.51-2.53,3.48-2.89,5.91H113.99z"/>
	</g>
	<path class="st0" d="M2.07,37.38h6.79c0.89,0,1.57-0.32,2.03-0.95c0.47-0.63,0.71-1.52,0.71-2.66l-0.02-15.29
		c-0.01-1.65-0.66-2.41-2.72-2.43l-6.79,0.02l-0.01-4.84h9.53V1.48h6.95v9.74l4.14-0.01l0,4.8l-1.7,0c-1.91,0-2.47,1.04-2.47,2.39
		l0.02,15.36c0.01,3.32-0.79,5.89-2.35,7.71c-1.56,1.82-3.76,2.74-6.57,2.74H2.07V37.38z"/>
	<path class="st0" d="M143.17,37.32h-6.79c-0.89,0-1.57-0.32-2.03-0.95c-0.47-0.63-0.71-1.52-0.71-2.66l0.02-15.29
		c0.01-1.65,0.66-2.41,2.72-2.43l6.79,0.02l0.01-4.84h-9.53V1.43h-6.95v9.74l-4.14-0.01l0,4.8l1.7,0c1.91,0,2.47,1.04,2.47,2.39
		l-0.02,15.36c-0.01,3.32,0.79,5.89,2.35,7.71c1.56,1.82,3.76,2.74,6.57,2.74h7.56V37.32z"/>
	<g>
		<path class="st1" d="M6.96,55.17H3.28v-6.16h1.1v5.3h2.58V55.17z"/>
		<path class="st1" d="M11.44,55.17H10.4v-0.69h-0.02c-0.33,0.53-0.81,0.79-1.44,0.79c-0.47,0-0.83-0.12-1.1-0.35
			c-0.26-0.24-0.4-0.55-0.4-0.93c0-0.83,0.52-1.31,1.55-1.45l1.41-0.18c0-0.63-0.32-0.94-0.96-0.94c-0.57,0-1.08,0.18-1.53,0.54
			v-0.87c0.5-0.27,1.08-0.41,1.73-0.41c1.2,0,1.8,0.55,1.8,1.64V55.17z M10.4,53.01l-1,0.13c-0.31,0.04-0.54,0.11-0.7,0.21
			s-0.23,0.28-0.23,0.54c0,0.19,0.07,0.34,0.22,0.46c0.14,0.12,0.34,0.18,0.58,0.18c0.33,0,0.6-0.11,0.81-0.32
			c0.21-0.21,0.32-0.48,0.32-0.81V53.01z"/>
		<path class="st1" d="M17.87,55.12c-0.21,0.1-0.49,0.15-0.83,0.15c-0.92,0-1.38-0.41-1.38-1.23v-2.49h-0.79v-0.78h0.79v-1.02
			l1.08-0.28v1.3h1.14v0.78h-1.14v2.2c0,0.26,0.05,0.45,0.15,0.56c0.1,0.11,0.27,0.17,0.51,0.17c0.18,0,0.34-0.05,0.47-0.15V55.12z"
			/>
		<path class="st1" d="M22.44,55.17H21.4v-0.69h-0.02c-0.33,0.53-0.81,0.79-1.44,0.79c-0.47,0-0.83-0.12-1.1-0.35
			c-0.26-0.24-0.4-0.55-0.4-0.93c0-0.83,0.52-1.31,1.55-1.45l1.41-0.18c0-0.63-0.32-0.94-0.96-0.94c-0.57,0-1.08,0.18-1.53,0.54
			v-0.87c0.5-0.27,1.08-0.41,1.73-0.41c1.2,0,1.8,0.55,1.8,1.64V55.17z M21.4,53.01l-1,0.13c-0.31,0.04-0.54,0.11-0.7,0.21
			s-0.23,0.28-0.23,0.54c0,0.19,0.07,0.34,0.22,0.46c0.14,0.12,0.34,0.18,0.58,0.18c0.33,0,0.6-0.11,0.81-0.32
			c0.21-0.21,0.32-0.48,0.32-0.81V53.01z"/>
		<path class="st1" d="M26.51,51.72c-0.13-0.09-0.32-0.14-0.56-0.14c-0.32,0-0.58,0.13-0.8,0.4c-0.21,0.27-0.32,0.63-0.32,1.09v2.1
			h-1.08v-4.4h1.08v0.91h0.02c0.11-0.31,0.27-0.55,0.48-0.72c0.22-0.17,0.46-0.26,0.73-0.26c0.19,0,0.34,0.03,0.45,0.08V51.72z"/>
		<path class="st1" d="M28.34,54.98c0,0.72-0.16,1.28-0.49,1.67c-0.33,0.39-0.8,0.59-1.41,0.59c-0.23,0-0.45-0.05-0.66-0.14v-0.85
			c0.2,0.13,0.39,0.19,0.57,0.19c0.61,0,0.91-0.5,0.91-1.49v-4.18h1.08V54.98z M27.81,49.84c-0.18,0-0.33-0.05-0.45-0.16
			c-0.13-0.11-0.19-0.24-0.19-0.4s0.06-0.3,0.19-0.41c0.13-0.11,0.28-0.16,0.45-0.16c0.18,0,0.33,0.05,0.46,0.16
			c0.13,0.11,0.19,0.25,0.19,0.41c0,0.15-0.06,0.29-0.19,0.4C28.15,49.79,27.99,49.84,27.81,49.84z"/>
		<path class="st1" d="M33.77,53.24h-3.24c0.01,0.41,0.15,0.72,0.41,0.94c0.26,0.22,0.61,0.33,1.06,0.33c0.51,0,0.97-0.14,1.4-0.42
			v0.8c-0.43,0.25-1,0.38-1.72,0.38c-0.7,0-1.25-0.2-1.64-0.6c-0.4-0.4-0.6-0.96-0.6-1.69c0-0.68,0.22-1.24,0.66-1.67
			c0.44-0.43,0.98-0.65,1.63-0.65c0.65,0,1.15,0.19,1.51,0.58c0.36,0.39,0.53,0.92,0.53,1.61V53.24z M32.73,52.53
			c0-0.36-0.09-0.64-0.27-0.84c-0.18-0.2-0.43-0.3-0.74-0.3c-0.31,0-0.57,0.1-0.79,0.31c-0.21,0.21-0.35,0.48-0.4,0.82H32.73z"/>
		<path class="st1" d="M37.3,55.12c-0.21,0.1-0.49,0.15-0.83,0.15c-0.92,0-1.38-0.41-1.38-1.23v-2.49h-0.79v-0.78h0.79v-1.02
			l1.08-0.28v1.3h1.14v0.78h-1.14v2.2c0,0.26,0.05,0.45,0.15,0.56c0.1,0.11,0.27,0.17,0.51,0.17c0.18,0,0.34-0.05,0.47-0.15V55.12z"
			/>
		<path class="st1" d="M41.87,55.17h-1.04v-0.69h-0.02c-0.33,0.53-0.81,0.79-1.44,0.79c-0.47,0-0.83-0.12-1.1-0.35
			c-0.26-0.24-0.4-0.55-0.4-0.93c0-0.83,0.52-1.31,1.55-1.45l1.41-0.18c0-0.63-0.32-0.94-0.96-0.94c-0.57,0-1.08,0.18-1.53,0.54
			v-0.87c0.5-0.27,1.08-0.41,1.73-0.41c1.2,0,1.8,0.55,1.8,1.64V55.17z M40.83,53.01l-1,0.13c-0.31,0.04-0.54,0.11-0.7,0.21
			s-0.23,0.28-0.23,0.54c0,0.19,0.07,0.34,0.22,0.46c0.14,0.12,0.34,0.18,0.58,0.18c0.33,0,0.6-0.11,0.81-0.32
			c0.21-0.21,0.32-0.48,0.32-0.81V53.01z"/>
		<path class="st1" d="M50.11,55.17h-1.08v-0.75h-0.02c-0.35,0.57-0.88,0.85-1.6,0.85c-0.58,0-1.05-0.2-1.4-0.59
			s-0.53-0.93-0.53-1.61c0-0.73,0.19-1.31,0.58-1.75c0.39-0.44,0.9-0.66,1.55-0.66c0.64,0,1.11,0.24,1.4,0.71h0.02v-2.72h1.08V55.17
			z M49.05,53.16v-0.58c0-0.31-0.11-0.58-0.33-0.79c-0.22-0.22-0.5-0.33-0.84-0.33c-0.4,0-0.72,0.14-0.95,0.42
			c-0.23,0.28-0.35,0.66-0.35,1.16c0,0.45,0.11,0.8,0.33,1.06c0.22,0.26,0.52,0.39,0.89,0.39c0.37,0,0.67-0.13,0.9-0.38
			C48.93,53.85,49.05,53.54,49.05,53.16z"/>
		<path class="st1" d="M55.53,53.24H52.3c0.01,0.41,0.15,0.72,0.41,0.94c0.26,0.22,0.61,0.33,1.06,0.33c0.51,0,0.97-0.14,1.4-0.42
			v0.8c-0.43,0.25-1,0.38-1.72,0.38c-0.7,0-1.25-0.2-1.64-0.6c-0.4-0.4-0.6-0.96-0.6-1.69c0-0.68,0.22-1.24,0.66-1.67
			c0.44-0.43,0.98-0.65,1.63-0.65c0.65,0,1.15,0.19,1.51,0.58c0.36,0.39,0.53,0.92,0.53,1.61V53.24z M54.5,52.53
			c0-0.36-0.09-0.64-0.27-0.84c-0.18-0.2-0.43-0.3-0.74-0.3c-0.31,0-0.57,0.1-0.79,0.31c-0.21,0.21-0.35,0.48-0.4,0.82H54.5z"/>
		<path class="st1" d="M60.26,54.52h-0.02v2.67h-1.08v-6.42h1.08v0.77h0.02c0.37-0.58,0.91-0.88,1.61-0.88c0.6,0,1.07,0.2,1.41,0.59
			c0.34,0.39,0.51,0.92,0.51,1.58c0,0.73-0.19,1.32-0.57,1.76c-0.38,0.44-0.9,0.66-1.56,0.66C61.06,55.26,60.59,55.01,60.26,54.52z
			 M60.24,52.78v0.55c0,0.32,0.11,0.59,0.33,0.82c0.22,0.22,0.5,0.34,0.84,0.34c0.4,0,0.71-0.14,0.94-0.43
			c0.23-0.29,0.34-0.69,0.34-1.2c0-0.43-0.11-0.77-0.32-1.02c-0.21-0.24-0.5-0.37-0.86-0.37c-0.38,0-0.69,0.13-0.93,0.38
			C60.35,52.09,60.24,52.4,60.24,52.78z"/>
		<path class="st1" d="M67.65,51.72c-0.13-0.09-0.32-0.14-0.56-0.14c-0.32,0-0.58,0.13-0.8,0.4c-0.21,0.27-0.32,0.63-0.32,1.09v2.1
			h-1.08v-4.4h1.08v0.91h0.02c0.11-0.31,0.27-0.55,0.48-0.72c0.22-0.17,0.46-0.26,0.73-0.26c0.19,0,0.34,0.03,0.45,0.08V51.72z"/>
		<path class="st1" d="M72.34,53.24h-3.24c0.01,0.41,0.15,0.72,0.41,0.94c0.26,0.22,0.61,0.33,1.06,0.33c0.51,0,0.97-0.14,1.4-0.42
			v0.8c-0.43,0.25-1,0.38-1.72,0.38c-0.7,0-1.25-0.2-1.64-0.6c-0.4-0.4-0.6-0.96-0.6-1.69c0-0.68,0.22-1.24,0.66-1.67
			c0.44-0.43,0.98-0.65,1.63-0.65c0.65,0,1.15,0.19,1.51,0.58c0.36,0.39,0.53,0.92,0.53,1.61V53.24z M71.3,52.53
			c0-0.36-0.09-0.64-0.27-0.84c-0.18-0.2-0.43-0.3-0.74-0.3c-0.31,0-0.57,0.1-0.79,0.31c-0.21,0.21-0.35,0.48-0.4,0.82H71.3z"/>
		<path class="st1" d="M73.07,55.03v-0.92c0.4,0.28,0.85,0.42,1.33,0.42c0.65,0,0.97-0.18,0.97-0.53c0-0.1-0.03-0.19-0.08-0.26
			c-0.06-0.07-0.13-0.13-0.22-0.19c-0.09-0.05-0.21-0.1-0.33-0.15c-0.13-0.04-0.27-0.09-0.43-0.15c-0.19-0.07-0.37-0.15-0.53-0.23
			c-0.16-0.08-0.29-0.17-0.39-0.27c-0.1-0.1-0.18-0.22-0.23-0.35c-0.05-0.13-0.08-0.28-0.08-0.45c0-0.21,0.05-0.4,0.16-0.56
			c0.11-0.16,0.25-0.3,0.44-0.41c0.18-0.11,0.39-0.19,0.62-0.25c0.23-0.06,0.47-0.08,0.72-0.08c0.44,0,0.83,0.06,1.18,0.19v0.87
			c-0.33-0.21-0.72-0.32-1.15-0.32c-0.14,0-0.26,0.01-0.37,0.04c-0.11,0.03-0.2,0.06-0.28,0.11c-0.08,0.05-0.14,0.1-0.18,0.17
			c-0.04,0.06-0.06,0.14-0.06,0.21c0,0.09,0.02,0.17,0.06,0.24c0.04,0.07,0.11,0.12,0.19,0.17s0.19,0.1,0.31,0.14
			c0.12,0.04,0.26,0.09,0.41,0.14c0.2,0.08,0.39,0.16,0.55,0.24c0.16,0.08,0.3,0.17,0.41,0.27c0.11,0.1,0.2,0.22,0.26,0.35
			c0.06,0.13,0.09,0.29,0.09,0.47c0,0.22-0.06,0.42-0.17,0.58c-0.11,0.17-0.26,0.3-0.45,0.41c-0.19,0.11-0.4,0.19-0.64,0.24
			c-0.24,0.05-0.5,0.08-0.77,0.08C73.9,55.27,73.45,55.19,73.07,55.03z"/>
		<path class="st1" d="M81.48,53.24h-3.24c0.01,0.41,0.15,0.72,0.41,0.94c0.26,0.22,0.61,0.33,1.06,0.33c0.51,0,0.97-0.14,1.4-0.42
			v0.8c-0.43,0.25-1,0.38-1.72,0.38c-0.7,0-1.25-0.2-1.64-0.6c-0.4-0.4-0.6-0.96-0.6-1.69c0-0.68,0.22-1.24,0.66-1.67
			c0.44-0.43,0.98-0.65,1.63-0.65c0.65,0,1.15,0.19,1.51,0.58c0.36,0.39,0.53,0.92,0.53,1.61V53.24z M80.44,52.53
			c0-0.36-0.09-0.64-0.27-0.84c-0.18-0.2-0.43-0.3-0.74-0.3c-0.31,0-0.57,0.1-0.79,0.31c-0.21,0.21-0.35,0.48-0.4,0.82H80.44z"/>
		<path class="st1" d="M86.74,55.17h-1.08v-2.48c0-0.82-0.31-1.23-0.94-1.23c-0.33,0-0.6,0.11-0.81,0.34
			c-0.21,0.23-0.32,0.51-0.32,0.86v2.51h-1.08v-4.4h1.08v0.73h0.02c0.36-0.56,0.87-0.83,1.54-0.83c0.52,0,0.91,0.16,1.18,0.47
			c0.27,0.31,0.41,0.76,0.41,1.35V55.17z"/>
		<path class="st1" d="M90.55,55.12c-0.21,0.1-0.49,0.15-0.83,0.15c-0.92,0-1.38-0.41-1.38-1.23v-2.49h-0.79v-0.78h0.79v-1.02
			l1.08-0.28v1.3h1.14v0.78h-1.14v2.2c0,0.26,0.05,0.45,0.15,0.56c0.1,0.11,0.27,0.17,0.51,0.17c0.18,0,0.34-0.05,0.47-0.15V55.12z"
			/>
		<path class="st1" d="M95.12,55.17h-1.04v-0.69h-0.02c-0.33,0.53-0.81,0.79-1.44,0.79c-0.47,0-0.83-0.12-1.1-0.35
			c-0.26-0.24-0.4-0.55-0.4-0.93c0-0.83,0.52-1.31,1.55-1.45l1.41-0.18c0-0.63-0.32-0.94-0.96-0.94c-0.57,0-1.08,0.18-1.53,0.54
			v-0.87c0.5-0.27,1.08-0.41,1.73-0.41c1.2,0,1.8,0.55,1.8,1.64V55.17z M94.09,53.01l-1,0.13c-0.31,0.04-0.54,0.11-0.7,0.21
			c-0.16,0.1-0.23,0.28-0.23,0.54c0,0.19,0.07,0.34,0.22,0.46c0.14,0.12,0.34,0.18,0.58,0.18c0.33,0,0.6-0.11,0.81-0.32
			c0.21-0.21,0.32-0.48,0.32-0.81V53.01z"/>
		<path class="st1" d="M99.83,54.96c-0.38,0.2-0.83,0.31-1.35,0.31c-0.7,0-1.27-0.2-1.71-0.61c-0.43-0.41-0.65-0.94-0.65-1.59
			c0-0.72,0.23-1.31,0.7-1.75s1.09-0.66,1.87-0.66c0.43,0,0.81,0.07,1.15,0.21v0.93c-0.33-0.23-0.68-0.34-1.06-0.34
			c-0.45,0-0.83,0.14-1.12,0.43c-0.29,0.29-0.44,0.66-0.44,1.12c0,0.46,0.14,0.81,0.41,1.08c0.27,0.26,0.64,0.4,1.1,0.4
			c0.39,0,0.75-0.13,1.09-0.38V54.96z"/>
		<path class="st1" d="M101.44,49.84c-0.18,0-0.33-0.05-0.45-0.16c-0.13-0.11-0.19-0.24-0.19-0.4s0.06-0.3,0.19-0.41
			c0.12-0.11,0.28-0.16,0.45-0.16c0.18,0,0.34,0.05,0.46,0.16c0.13,0.11,0.19,0.25,0.19,0.41c0,0.15-0.06,0.29-0.19,0.4
			C101.78,49.79,101.63,49.84,101.44,49.84z M101.98,55.17h-1.08v-4.4h1.08V55.17z"/>
		<path class="st1" d="M105.49,55.27c-0.73,0-1.32-0.21-1.75-0.62c-0.44-0.41-0.66-0.96-0.66-1.63c0-0.74,0.23-1.32,0.68-1.73
			c0.46-0.42,1.07-0.62,1.84-0.62c0.74,0,1.32,0.2,1.73,0.61c0.41,0.4,0.62,0.96,0.62,1.68c0,0.7-0.22,1.26-0.67,1.69
			S106.24,55.27,105.49,55.27z M105.54,51.46c-0.42,0-0.75,0.14-1,0.41c-0.24,0.27-0.37,0.65-0.37,1.13c0,0.46,0.12,0.82,0.37,1.09
			c0.25,0.26,0.58,0.4,0.99,0.4c0.42,0,0.75-0.13,0.98-0.39c0.23-0.26,0.34-0.63,0.34-1.11c0-0.48-0.11-0.86-0.34-1.12
			C106.29,51.59,105.96,51.46,105.54,51.46z M106.91,48.53l-1.33,1.41h-0.8l1.12-1.41H106.91z"/>
		<path class="st1" d="M113.28,55.17h-1.08v-2.48c0-0.82-0.31-1.23-0.94-1.23c-0.33,0-0.6,0.11-0.81,0.34
			c-0.21,0.23-0.32,0.51-0.32,0.86v2.51h-1.08v-4.4h1.08v0.73h0.02c0.36-0.56,0.87-0.83,1.54-0.83c0.52,0,0.91,0.16,1.18,0.47
			c0.27,0.31,0.41,0.76,0.41,1.35V55.17z"/>
		<path class="st1" d="M121.29,50.77l-1.84,4.4h-1.16l-1.75-4.4h1.17l1.05,3.07c0.08,0.23,0.13,0.42,0.15,0.59h0.01
			c0.03-0.21,0.07-0.4,0.13-0.58l1.1-3.09H121.29z"/>
		<path class="st1" d="M122.57,49.84c-0.18,0-0.33-0.05-0.45-0.16c-0.13-0.11-0.19-0.24-0.19-0.4s0.06-0.3,0.19-0.41
			c0.12-0.11,0.28-0.16,0.45-0.16c0.18,0,0.34,0.05,0.46,0.16c0.13,0.11,0.19,0.25,0.19,0.41c0,0.15-0.06,0.29-0.19,0.4
			C122.9,49.79,122.75,49.84,122.57,49.84z M123.1,55.17h-1.08v-4.4h1.08V55.17z"/>
		<path class="st1" d="M127.26,51.72c-0.13-0.09-0.32-0.14-0.56-0.14c-0.32,0-0.58,0.13-0.8,0.4c-0.21,0.27-0.32,0.63-0.32,1.09v2.1
			h-1.08v-4.4h1.08v0.91h0.02c0.11-0.31,0.27-0.55,0.48-0.72c0.22-0.17,0.46-0.26,0.73-0.26c0.19,0,0.34,0.03,0.45,0.08V51.72z"/>
		<path class="st1" d="M130.8,55.12c-0.21,0.1-0.49,0.15-0.83,0.15c-0.92,0-1.38-0.41-1.38-1.23v-2.49h-0.79v-0.78h0.79v-1.02
			l1.08-0.28v1.3h1.14v0.78h-1.14v2.2c0,0.26,0.05,0.45,0.15,0.56c0.1,0.11,0.27,0.17,0.51,0.17c0.18,0,0.34-0.05,0.47-0.15V55.12z"
			/>
		<path class="st1" d="M135.86,55.17h-1.08v-0.7h-0.02c-0.31,0.53-0.8,0.8-1.46,0.8c-1.12,0-1.68-0.62-1.68-1.87v-2.63h1.08v2.53
			c0,0.79,0.33,1.19,0.99,1.19c0.32,0,0.58-0.11,0.79-0.33c0.21-0.22,0.31-0.5,0.31-0.85v-2.53h1.08V55.17z"/>
		<path class="st1" d="M140.91,55.17h-1.04v-0.69h-0.02c-0.33,0.53-0.81,0.79-1.44,0.79c-0.47,0-0.83-0.12-1.1-0.35
			c-0.26-0.24-0.4-0.55-0.4-0.93c0-0.83,0.52-1.31,1.55-1.45l1.41-0.18c0-0.63-0.32-0.94-0.96-0.94c-0.57,0-1.08,0.18-1.53,0.54
			v-0.87c0.5-0.27,1.08-0.41,1.73-0.41c1.2,0,1.8,0.55,1.8,1.64V55.17z M139.87,53.01l-1,0.13c-0.31,0.04-0.54,0.11-0.7,0.21
			s-0.23,0.28-0.23,0.54c0,0.19,0.07,0.34,0.22,0.46c0.14,0.12,0.34,0.18,0.58,0.18c0.33,0,0.6-0.11,0.81-0.32
			c0.21-0.21,0.32-0.48,0.32-0.81V53.01z"/>
		<path class="st1" d="M143.3,55.17h-1.08v-6.51h1.08V55.17z"/>
	</g>
	<path class="st0" d="M77.41,16.55H67.33c-2.6,0-4.05,0.4-4.05,2.79l0.03,24.97h-5.68V19.34c0-2.57,0.79-4.56,2.34-5.96
		c1.56-1.41,3.75-2.12,6.57-2.12h10.86L77.41,16.55z"/>
	<path class="st2" d="M66.87,18.44h9.74c0.81,0,1.47,0.66,1.47,1.47v15.33c0,0.81-0.66,1.47-1.47,1.47h-9.74
		c-0.81,0-1.47-0.66-1.47-1.47V19.9C65.41,19.1,66.07,18.44,66.87,18.44z"/>
	<ellipse class="st2" cx="82.85" cy="4.75" rx="3.45" ry="3.27"/>
</g>
</svg>
