<?xml version="1.0" encoding="utf-8"?>
<!-- Generator: Adobe Illustrator 24.0.1, SVG Export Plug-In . SVG Version: 6.00 Build 0)  -->
<svg version="1.1" id="Layer_1" xmlns="http://www.w3.org/2000/svg" xmlns:xlink="http://www.w3.org/1999/xlink" x="0px" y="0px"
	 viewBox="0 0 145 45" style="enable-background:new 0 0 145 45;" xml:space="preserve">
<style type="text/css">
	.st0{fill:#008240;}
	.st1{fill:#23204E;}
	.st2{fill-rule:evenodd;clip-rule:evenodd;fill:#A0C21A;}
	.st3{fill-rule:evenodd;clip-rule:evenodd;fill:#23204E;}
</style>
<g>
	<path class="st0" d="M65.84,38.81h10.22c2.63,0,4.1-0.4,4.1-2.83l-0.03-25.32h5.76v25.32c0,2.6-0.8,4.62-2.38,6.05
		c-1.58,1.43-3.81,2.15-6.67,2.15H65.84L65.84,38.81z"/>
	<path class="st1" d="M52.34,44.27l-7.65,0.01v-5.8h-0.14c-2.41,3.84-5.95,5.75-10.62,5.75c-3.44,0-6.13-0.85-8.08-2.56
		c-1.95-1.71-2.91-3.97-2.91-6.78c0-6.03,3.8-9.55,11.4-10.56l10.38-1.34c0-4.56-2.37-6.83-7.1-6.83c-4.17,0-7.92,1.31-11.27,3.93
		v-6.34c3.68-2,7.94-3,12.76-3c8.83,0,13.26,3.98,13.25,11.93L52.34,44.27L52.34,44.27z M44.73,27.77l-7.34,0.94
		c-2.27,0.28-3.99,0.78-5.14,1.51c-1.15,0.75-1.72,2.04-1.72,3.89c0,1.35,0.54,2.46,1.58,3.33c1.06,0.86,2.48,1.3,4.25,1.3
		c2.41,0,4.42-0.78,5.99-2.34c1.58-1.55,2.38-3.5,2.38-5.85V27.77z"/>
	<g>
		<path class="st1" d="M122.32,29.81H98.38c0.09,2.97,1.09,5.26,3,6.87c1.91,1.61,4.53,2.42,7.87,2.42c3.75,0,7.19-1.03,10.32-3.08
			v5.87c-3.2,1.84-7.43,2.76-12.69,2.76c-5.17,0-9.22-1.46-12.16-4.38c-2.94-2.92-4.41-7.02-4.41-12.32c0-5,1.62-9.08,4.85-12.22
			c3.24-3.15,7.25-4.72,12.06-4.72c4.8,0,8.52,1.41,11.15,4.24c2.63,2.82,3.94,6.75,3.94,11.77V29.81z M114.64,24.66
			c-0.02-2.62-0.7-4.65-2.02-6.1c-1.33-1.45-3.16-2.18-5.49-2.18c-2.29,0-4.22,0.76-5.81,2.29c-1.59,1.53-2.57,3.53-2.93,5.99
			H114.64z"/>
	</g>
	<path class="st1" d="M1.14,37.25h6.89c0.9,0,1.59-0.32,2.06-0.96c0.47-0.64,0.72-1.54,0.72-2.7l-0.02-15.51
		c-0.01-1.68-0.67-2.44-2.75-2.47l-6.89,0.02l-0.01-4.9h9.67V0.84h7.05v9.88l4.2-0.01l0,4.87l-1.72,0c-1.94,0-2.5,1.05-2.5,2.43
		l0.02,15.58c0.01,3.36-0.8,5.98-2.38,7.82c-1.58,1.85-3.81,2.78-6.67,2.78H1.14V37.25z"/>
	<path class="st1" d="M144.24,37.2h-6.89c-0.9,0-1.59-0.32-2.06-0.96c-0.47-0.64-0.72-1.54-0.72-2.7l0.02-15.51
		c0.01-1.68,0.67-2.44,2.75-2.47l6.89,0.02l0.01-4.9h-9.67V0.79h-7.05v9.88l-4.2-0.01l0,4.87l1.72,0c1.94,0,2.5,1.05,2.5,2.43
		l-0.02,15.58c-0.01,3.36,0.8,5.98,2.38,7.82c1.58,1.85,3.81,2.78,6.67,2.78h7.67V37.2z"/>
	<path class="st0" d="M77.55,16.13H67.32c-2.63,0-4.1,0.4-4.1,2.83l0.03,25.32h-5.76V18.96c0-2.6,0.8-4.62,2.38-6.05
		c1.58-1.43,3.81-2.15,6.67-2.15h11.01L77.55,16.13z"/>
	<path class="st2" d="M66.86,18.04h9.88c0.82,0,1.49,0.67,1.49,1.49v15.55c0,0.82-0.67,1.49-1.49,1.49h-9.88
		c-0.82,0-1.49-0.67-1.49-1.49V19.53C65.38,18.71,66.04,18.04,66.86,18.04z"/>
	<ellipse class="st3" cx="83.06" cy="4.16" rx="3.5" ry="3.32"/>
</g>
</svg>
